<svg width="52" height="37" viewBox="0 0 52 37" fill="none" xmlns="http://www.w3.org/2000/svg">
<path fill-rule="evenodd" clip-rule="evenodd" d="M5.25098 27.9013C5.27897 27.5977 5.40011 27.3087 5.59813 27.0708L6.80592 25.6208L13.0999 30.4658L11.8886 31.9132C11.6897 32.1507 11.4223 32.3267 11.1197 32.419L9.63694 32.8718C9.38355 32.9492 9.11414 32.9654 8.8527 32.9187C8.59125 32.8721 8.34587 32.7641 8.13839 32.6044L5.71057 30.7354C5.5031 30.5757 5.33997 30.3692 5.23571 30.1344C5.13144 29.8995 5.08927 29.6435 5.11295 29.3893L5.25098 27.9013Z" fill="#A9A9A9"/>
<path fill-rule="evenodd" clip-rule="evenodd" d="M16.6463 12.738C18.2614 12.8035 19.8646 12.8684 22.0115 11.6215C22.3678 11.8247 22.7161 12.0551 23.054 12.3136C23.4976 12.6529 23.8982 13.0246 24.2552 13.4223C21.9126 14.8331 22.3384 17.0634 22.8198 19.5853C23.2031 21.5933 23.6217 23.7862 22.7061 25.8973C21.6132 26.6516 20.3711 27.1431 19.082 27.3623C17.8374 27.574 15.5786 28.2789 14.1431 29.2353L14.1297 29.2474L14.1142 29.2615L7.80993 24.4085L7.82007 24.3921L7.83021 24.3757C8.49061 22.8226 8.71625 20.5526 8.66093 19.3403C8.58978 17.7828 8.96035 16.2021 9.79627 14.785C12.7421 12.5798 14.7028 12.6593 16.6463 12.738ZM14.3763 16.5553C15.7678 14.8891 18.312 14.6205 20.0474 15.9564C20.3951 16.2241 20.9027 16.1705 21.1816 15.8366C21.4604 15.5027 21.4046 15.0154 21.0568 14.7477C18.627 12.8772 15.0656 13.2533 13.1174 15.5861C12.8385 15.92 12.8944 16.4073 13.2421 16.675C13.5899 16.9428 14.0975 16.8892 14.3763 16.5553Z" fill="#FBDC70"/>
<path d="M10.5995 13.6478C10.2956 14.0117 10.0281 14.392 9.79627 14.785C12.7421 12.5798 14.7028 12.6593 16.6463 12.738C18.2614 12.8035 19.8646 12.8684 22.0115 11.6215C18.1256 9.40522 13.2876 10.4291 10.5995 13.6478Z" fill="#FBDC70"/>
<path d="M24.4169 18.9948C23.9022 18.8234 22.7378 17.0115 22.3873 16.551C21.1172 20.3662 21.7576 24.3045 25.9302 25.6942C27.5511 26.234 29.0819 26.2646 30.3766 25.7936C29.8866 24.3048 28.4154 23.3396 27.0515 22.4449C25.4991 21.4265 24.0857 20.4992 24.4169 18.9948Z" fill="#FFC147"/>
<path d="M30.8647 16.9077C28.9663 16.4082 27.0438 16.5543 25.2467 18.7576C25.0421 19.009 24.7221 19.0965 24.4169 18.9948C24.0857 20.4992 25.4991 21.4265 27.0515 22.4449C28.4154 23.3396 29.8866 24.3048 30.3766 25.7936C31.889 25.2433 33.0792 24.0085 33.7144 22.1011C33.7462 22.0057 33.7638 21.9087 33.7815 21.8115C33.7905 21.7621 33.7995 21.7125 33.8103 21.6632L34.7715 20.2484L32.6354 16.8001L30.8647 16.9077Z" fill="#FDE79A"/>
<path d="M49.1125 7.0649C48.4101 6.831 47.6483 6.92261 46.9959 7.20657C44.4119 8.3223 42.3249 9.19766 40.6323 9.90757C34.2765 12.5734 33.483 12.9062 32.8281 14.8726C32.6167 15.5072 32.5658 16.1624 32.6354 16.8001L34.7715 20.2484C35.0777 20.443 35.4029 20.6146 35.762 20.7342C38.6393 21.6925 41.0086 20.1415 49.5012 12.1113C50.0644 11.5604 50.6056 10.9429 50.8547 10.1952C51.3007 8.85594 50.4147 7.49861 49.1125 7.0649Z" fill="#135777"/>
</svg>
